<svg width="18" height="14" viewBox="0 0 18 14" fill="none" xmlns="http://www.w3.org/2000/svg">
<path d="M15 0.0341797H3C2.20508 0.0365538 1.4434 0.353387 0.881302 0.915482C0.319207 1.47758 0.00237409 2.23926 0 3.03418L0 10.5342C0.00237409 11.3291 0.319207 12.0908 0.881302 12.6529C1.4434 13.215 2.20508 13.5318 3 13.5342H15C15.7949 13.5318 16.5566 13.215 17.1187 12.6529C17.6808 12.0908 17.9976 11.3291 18 10.5342V3.03418C17.9976 2.23926 17.6808 1.47758 17.1187 0.915482C16.5566 0.353387 15.7949 0.0365538 15 0.0341797ZM16.2 4.38418L10.275 8.35918C9.89105 8.59564 9.45084 8.72512 9 8.73418C8.54916 8.72512 8.10895 8.59564 7.725 8.35918L1.8 4.38418C1.64986 4.2585 1.55148 4.08176 1.52379 3.88792C1.4961 3.69409 1.54105 3.49687 1.65 3.33418C1.77568 3.18404 1.95242 3.08566 2.14626 3.05797C2.34009 3.03028 2.53731 3.07523 2.7 3.18418L8.625 7.15918C8.74998 7.23286 8.89242 7.27172 9.0375 7.27172C9.18258 7.27172 9.32502 7.23286 9.45 7.15918L15.375 3.18418C15.4578 3.1271 15.5514 3.08754 15.65 3.06793C15.7486 3.04832 15.8502 3.04908 15.9485 3.07015C16.0469 3.09122 16.1399 3.13216 16.2218 3.19046C16.3037 3.24876 16.3729 3.32319 16.425 3.40918C16.5007 3.57369 16.5196 3.75865 16.4789 3.93508C16.4382 4.11152 16.3401 4.26946 16.2 4.38418Z" fill="white"/>
</svg>
