<svg width="25" height="24" viewBox="0 0 25 24" fill="none" xmlns="http://www.w3.org/2000/svg">
<g clip-path="url(#clip0_276_2251)">
<path fill-rule="evenodd" clip-rule="evenodd" d="M18.4412 8.81534L18.467 8.8794L18.6257 8.81534H21.7154C22.7313 8.81534 23.4534 9.80398 23.1443 10.7717L19.7325 21.4538C19.534 22.0755 18.9563 22.4975 18.3036 22.4975H6.70153C6.04892 22.4975 5.4712 22.0755 5.27264 21.4538L1.86087 10.7717C1.55178 9.80398 2.27386 8.81534 3.28976 8.81534H6.379L6.53766 8.8794L6.56352 8.81534H18.4412ZM19.4532 7.31534H21.7154C23.7472 7.31534 25.1914 9.29262 24.5732 11.2281L21.1614 21.9102C20.7643 23.1536 19.6089 23.9975 18.3036 23.9975H6.70153C5.39631 23.9975 4.24087 23.1536 3.84376 21.9102L0.431981 11.2281C-0.186192 9.29262 1.25796 7.31534 3.28976 7.31534H5.55146L7.74965 1.87033C8.1694 0.830573 9.1784 0.149796 10.2997 0.149796H14.705C15.8263 0.149796 16.8353 0.830574 17.2551 1.87033L19.4532 7.31534ZM7.16908 7.31534L9.14058 2.43186C9.33138 1.95924 9.79001 1.6498 10.2997 1.6498L14.705 1.6498C15.2147 1.6498 15.6733 1.95924 15.8641 2.43186L17.8356 7.31534H7.16908Z" fill="white"/>
</g>
<defs>
<clipPath id="clip0_276_2251">
<rect width="24" height="24" fill="white" transform="translate(0.5)"/>
</clipPath>
</defs>
</svg>
