<svg width="15" height="15" viewBox="0 0 15 15" fill="none" xmlns="http://www.w3.org/2000/svg">
<path d="M3.38298 4.56885H0.771484V14.0301H3.38298V4.56885Z" fill="white"/>
<path d="M12.1093 4.56961C11.4141 4.32534 10.659 4.31005 9.95451 4.52598C9.25002 4.74192 8.63318 5.17774 8.1943 5.76961V4.56961H5.5918V14.0309H8.1943V9.03961C8.17962 8.40713 8.41084 7.7936 8.8393 7.32811C8.96139 7.18495 9.11161 7.0684 9.28062 6.9857C9.44963 6.903 9.63383 6.85591 9.8218 6.84736C10.0329 6.84333 10.2426 6.88198 10.4383 6.96098C10.6341 7.03998 10.8119 7.15771 10.961 7.30711C11.2844 7.64511 11.4609 8.09721 11.4523 8.56486V14.0331H14.3968V8.17261C14.471 7.40311 14.2862 6.63086 13.8719 5.97822C13.4575 5.32557 12.8372 4.82986 12.1093 4.56961Z" fill="white"/>
<path d="M2.07656 3.26149C2.97748 3.26149 3.70781 2.53149 3.70781 1.63099C3.70781 0.730488 2.97748 0.000488281 2.07656 0.000488281C1.17565 0.000488281 0.445312 0.730488 0.445312 1.63099C0.445312 2.53149 1.17565 3.26149 2.07656 3.26149Z" fill="white"/>
</svg>
