<svg width="15" height="16" viewBox="0 0 15 16" fill="none" xmlns="http://www.w3.org/2000/svg">
<path d="M13.6643 10.7301L12.3893 9.45514C12.0098 9.07876 11.4976 8.86658 10.963 8.86434C10.4285 8.8621 9.91454 9.06996 9.53184 9.44314C9.32766 9.64862 9.05821 9.77648 8.7699 9.80468C8.4816 9.83288 8.19248 9.75966 7.95234 9.59764C7.00324 8.96548 6.18776 8.15281 5.55234 7.20588C5.39338 6.9631 5.32293 6.67297 5.35285 6.38432C5.38276 6.09568 5.51122 5.82615 5.71659 5.62114C6.08671 5.238 6.29208 4.72516 6.28872 4.19247C6.28536 3.65977 6.07352 3.14956 5.69859 2.77114L4.42359 1.49614C4.04247 1.11619 3.52626 0.902832 2.98809 0.902832C2.44993 0.902832 1.93372 1.11619 1.55259 1.49614L1.18659 1.86289C-0.715407 3.77689 -0.572157 7.79239 3.40059 11.7636C5.79609 14.1636 8.20734 15.1634 10.1626 15.1634C10.7381 15.1825 11.3117 15.0869 11.8499 14.8822C12.3882 14.6775 12.8803 14.3677 13.2976 13.9709L13.6643 13.6041C14.0454 13.223 14.2595 12.7061 14.2595 12.1671C14.2595 11.6282 14.0454 11.1113 13.6643 10.7301Z" fill="white"/>
</svg>
