<svg width="15" height="12" viewBox="0 0 15 12" fill="none" xmlns="http://www.w3.org/2000/svg">
<path d="M4.82956 11.7107C5.90579 11.7186 6.97289 11.5127 7.96887 11.1048C8.96485 10.6969 9.86987 10.0952 10.6314 9.33463C11.3928 8.57404 11.9956 7.66975 12.4047 6.67425C12.8138 5.67876 13.021 4.61191 13.0143 3.53567C13.0143 3.41267 13.0143 3.28892 13.0091 3.16592C13.5724 2.75862 14.0588 2.25424 14.4453 1.67642C13.9187 1.90711 13.361 2.05875 12.7901 2.12642C13.3913 1.76724 13.8417 1.20196 14.0576 0.535666C13.4924 0.870291 12.8739 1.10522 12.2291 1.23017C11.8343 0.810041 11.3225 0.518125 10.7599 0.392231C10.1973 0.266337 9.60991 0.312265 9.07374 0.524067C8.53757 0.735869 8.07734 1.10379 7.75268 1.58016C7.42802 2.05654 7.25388 2.61942 7.25281 3.19591C7.25494 3.41643 7.28008 3.63612 7.32781 3.85142C6.1845 3.79439 5.06591 3.49787 4.04448 2.98108C3.02304 2.46429 2.12153 1.73875 1.39831 0.85142C1.03217 1.48459 0.920584 2.23333 1.08619 2.94575C1.25179 3.65816 1.68218 4.2809 2.29005 4.68766C1.83422 4.67166 1.38852 4.54886 0.988804 4.32916V4.36817C0.988353 5.03213 1.2174 5.67585 1.63713 6.19031C2.05687 6.70476 2.64151 7.05834 3.29205 7.19117C2.8694 7.30564 2.4263 7.32282 1.99606 7.24142C2.1801 7.81247 2.53811 8.31167 3.01998 8.66913C3.50184 9.02659 4.08342 9.22442 4.68331 9.23491C3.66403 10.035 2.40531 10.469 1.10956 10.4672C0.88072 10.4683 0.652032 10.4553 0.424805 10.4282C1.74073 11.2663 3.26938 11.7113 4.82956 11.7107Z" fill="white"/>
</svg>
