<svg width="26" height="26" viewBox="0 0 26 26" fill="none" xmlns="http://www.w3.org/2000/svg">
<path d="M4.21021 20.4159C6.80619 18.9486 9.8053 18.1111 13 18.1111C16.1947 18.1111 19.1938 18.9486 21.7898 20.4159M16.8333 10.4444C16.8333 12.5615 15.1171 14.2778 13 14.2778C10.8829 14.2778 9.16667 12.5615 9.16667 10.4444C9.16667 8.32735 10.8829 6.61111 13 6.61111C15.1171 6.61111 16.8333 8.32735 16.8333 10.4444ZM24.5 13C24.5 19.3513 19.3513 24.5 13 24.5C6.64873 24.5 1.5 19.3513 1.5 13C1.5 6.64873 6.64873 1.5 13 1.5C19.3513 1.5 24.5 6.64873 24.5 13Z" stroke="white" stroke-width="1.5" stroke-linecap="round" stroke-linejoin="round"/>
</svg>
