<svg width="48" height="48" viewBox="0 0 48 48" fill="none" xmlns="http://www.w3.org/2000/svg">
<path d="M6.80259 38.5093C11.8817 35.6385 17.7495 34 24 34C30.2505 34 36.1183 35.6385 41.1974 38.5093M31.5 19C31.5 23.1421 28.1421 26.5 24 26.5C19.8579 26.5 16.5 23.1421 16.5 19C16.5 14.8579 19.8579 11.5 24 11.5C28.1421 11.5 31.5 14.8579 31.5 19ZM46.5 24C46.5 36.4264 36.4264 46.5 24 46.5C11.5736 46.5 1.5 36.4264 1.5 24C1.5 11.5736 11.5736 1.5 24 1.5C36.4264 1.5 46.5 11.5736 46.5 24Z" stroke="#323B49" stroke-width="3" stroke-linecap="round" stroke-linejoin="round"/>
</svg>
