<svg width="43" height="51" viewBox="0 0 43 51" fill="none" xmlns="http://www.w3.org/2000/svg">
<path d="M35.6421 35.6421C32.7326 38.5516 25.878 45.4063 22.9104 48.3738C22.1294 49.1549 20.8712 49.1554 20.0901 48.3744C17.1693 45.4536 10.4707 38.7549 7.35786 35.6421C-0.452621 27.8316 -0.452621 15.1684 7.35786 7.35786C15.1684 -0.452621 27.8316 -0.452621 35.6421 7.35786C43.4526 15.1684 43.4526 27.8316 35.6421 35.6421Z" stroke="#323B49" stroke-width="3" stroke-linecap="round" stroke-linejoin="round"/>
<path d="M29 21.5C29 25.6421 25.6421 29 21.5 29C17.3579 29 14 25.6421 14 21.5C14 17.3579 17.3579 14 21.5 14C25.6421 14 29 17.3579 29 21.5Z" stroke="#323B49" stroke-width="3" stroke-linecap="round" stroke-linejoin="round"/>
</svg>
