<svg width="32" height="32" viewBox="0 0 32 32" fill="none" xmlns="http://www.w3.org/2000/svg">
<g id="CZ" clip-path="url(#clip0_310_799)">
<path id="Vector" d="M16 32C24.8366 32 32 24.8366 32 16C32 7.16344 24.8366 0 16 0C7.16344 0 0 7.16344 0 16C0 24.8366 7.16344 32 16 32Z" fill="#F0F0F0"/>
<path id="Vector_2" d="M14.6094 15.9991C14.6094 15.9991 4.69639 27.3151 4.68701 27.3128C7.58239 30.2083 11.5824 31.9992 16.0008 31.9992C24.8373 31.9992 32.0008 24.8357 32.0008 15.9991H14.6094Z" fill="#D80027"/>
<path id="Vector_3" d="M4.68677 4.68616C-1.56161 10.9345 -1.56161 21.0652 4.68677 27.3137C7.26884 24.7316 9.75215 22.2483 16.0005 15.9999L4.68677 4.68616Z" fill="#0052B4"/>
</g>
<defs>
<clipPath id="clip0_310_799">
<rect width="32" height="32" fill="white"/>
</clipPath>
</defs>
</svg>
