<svg width="48" height="30" viewBox="0 0 48 30" fill="none" xmlns="http://www.w3.org/2000/svg">
<rect width="48" height="30" rx="1" fill="#F8F8F8"/>
<g clip-path="url(#clip0_208_2462)">
<path d="M12.3301 5.22517V24.7866H24.2729C32.1511 24.7866 35.5675 20.5735 35.5675 14.9867C35.5675 9.42166 32.1511 5.22517 24.2729 5.22517H12.3301Z" fill="white"/>
<path d="M13.6211 6.45898H24.2747C31.5056 6.45898 34.2772 10.2297 34.2772 14.9864C34.2772 20.6902 30.4068 23.5522 24.2747 23.5522H13.6211V6.45898ZM14.6539 7.44524V22.5665H24.2747C30.0832 22.5665 33.2435 19.9819 33.2435 14.9864C33.2435 9.85254 29.8176 7.44494 24.2747 7.44494H14.6539V7.44524Z" fill="black"/>
<path d="M15.9443 16.0984H19.0241V21.3327H15.9443V16.0984Z" fill="black"/>
<path d="M17.4844 15.2889C18.5415 15.2889 19.3984 14.4705 19.3984 13.4611C19.3984 12.4516 18.5415 11.6333 17.4844 11.6333C16.4273 11.6333 15.5703 12.4516 15.5703 13.4611C15.5703 14.4705 16.4273 15.2889 17.4844 15.2889Z" fill="black"/>
<path d="M25.4835 14.3162V15.1637H23.289V11.7626H25.4134V12.6099H24.1763V13.0037H25.3461V13.8512H24.1763V14.3165L25.4835 14.3162ZM25.8674 15.1643L26.9413 11.7614H28.2036L29.2772 15.1643H28.3536L28.1522 14.5061H26.9915L26.7897 15.1643H25.8674ZM27.2517 13.6595H27.8939L27.5993 12.6982H27.5456L27.2517 13.6595ZM29.7233 11.7617H30.6112V14.3165H31.9253C31.5648 9.68097 27.7467 8.67934 24.2754 8.67934H20.5758V11.7635H21.1233C22.1217 11.7635 22.7415 12.41 22.7415 13.4502C22.7415 14.5236 22.1366 15.1643 21.1233 15.1643H20.5758V21.3351H24.2757C29.9169 21.3351 31.8815 18.8332 31.9509 15.1637H29.7233V11.7617ZM20.5752 12.6108V14.3165H21.1233C21.5032 14.3165 21.8543 14.2115 21.8543 13.4499C21.8543 12.7061 21.4637 12.6108 21.1233 12.6108H20.5752Z" fill="#D50072"/>
</g>
<defs>
<clipPath id="clip0_208_2462">
<rect width="28" height="24" fill="white" transform="translate(10 3)"/>
</clipPath>
</defs>
</svg>
