<svg width="61" height="60" viewBox="0 0 61 60" fill="none" xmlns="http://www.w3.org/2000/svg">
<g clip-path="url(#clip0_1_27)">
<g opacity="0.8">
<path d="M4.9466 50.7847C5.56796 50.7847 6.13107 50.8648 6.65534 51.0251C7.17961 51.1853 7.62621 51.4458 8.01456 51.8064C8.40291 52.167 8.69417 52.6478 8.90777 53.2287C9.12136 53.8097 9.23786 54.5309 9.23786 55.3923C9.23786 56.0935 9.14078 56.7346 8.96602 57.2955C8.79126 57.8565 8.5 58.3373 8.13107 58.7379C7.76214 59.1386 7.29612 59.4391 6.73301 59.6595C6.1699 59.8798 5.50971 59.98 4.77184 59.98C4.1699 59.98 3.6068 59.8999 3.08252 59.7596C2.55825 59.5994 2.11165 59.359 1.7233 59.0184C1.33495 58.6778 1.04369 58.2171 0.830097 57.6561C0.616505 57.0952 0.5 56.394 0.5 55.5726C0.5 54.8314 0.57767 54.1703 0.752427 53.5893C0.927184 53.0084 1.17961 52.4875 1.54854 52.0868C1.91748 51.6661 2.36408 51.3456 2.92718 51.1252C3.49029 50.9049 4.1699 50.7847 4.9466 50.7847ZM5.00485 51.7663C4.51942 51.7663 4.11165 51.8464 3.76214 51.9867C3.41262 52.1269 3.14078 52.3473 2.90777 52.6277C2.69417 52.9082 2.51942 53.2488 2.42233 53.6494C2.32524 54.0501 2.26699 54.5109 2.26699 55.0317C2.26699 55.8331 2.32524 56.4942 2.44175 56.995C2.55825 57.5159 2.71359 57.9166 2.9466 58.2171C3.16019 58.5176 3.43204 58.7179 3.7233 58.8381C4.03398 58.9583 4.3835 59.0184 4.75243 59.0184C5.25728 59.0184 5.68447 58.9383 6.03398 58.778C6.3835 58.6177 6.65534 58.3974 6.86893 58.0969C7.08252 57.7964 7.21845 57.4358 7.31553 56.995C7.41262 56.5543 7.45146 56.0534 7.45146 55.4725C7.45146 54.7312 7.3932 54.1302 7.2767 53.6494C7.16019 53.1686 6.98544 52.788 6.77184 52.5276C6.55825 52.2471 6.30583 52.0468 5.99515 51.9466C5.70388 51.8264 5.37379 51.7663 5.00485 51.7663Z" fill="url(#paint0_linear_1_27)"/>
<path d="M15.9563 58.6378C15.9563 58.9784 16.0728 59.1587 16.3058 59.1587C16.4223 59.1587 16.5 59.0986 16.5388 58.9984C16.5971 58.8983 16.6165 58.7781 16.6165 58.6378V57.9367H17.1602V58.4776C17.1602 58.738 17.1214 58.9584 17.0631 59.1387C17.0048 59.319 16.9078 59.4592 16.7913 59.5794C16.6747 59.6996 16.5388 59.7797 16.3835 59.8198C16.2281 59.8599 16.0534 59.8999 15.8786 59.8999C15.665 59.8999 15.4903 59.8599 15.3544 59.7998C15.199 59.7397 15.0825 59.6395 14.9854 59.5393C14.8883 59.4191 14.8107 59.2989 14.7524 59.1587C14.6942 59.0185 14.6553 58.8582 14.6165 58.6979C14.5388 58.8782 14.4223 59.0385 14.267 59.1988C14.1116 59.359 13.9369 59.4993 13.7233 59.6195C13.5097 59.7397 13.2767 59.8398 13.0243 59.92C12.7718 60.0001 12.4806 60.0201 12.1893 60.0201C11.4709 60.0201 10.9466 59.8599 10.5971 59.5594C10.267 59.2589 10.0922 58.8382 10.0922 58.3173C10.0922 57.9968 10.1505 57.7363 10.267 57.536C10.3835 57.3357 10.5582 57.1554 10.7718 57.0151C10.9854 56.8749 11.2379 56.7547 11.5097 56.6746C11.7815 56.5944 12.0922 56.5143 12.4029 56.4542C12.7136 56.3941 13.0437 56.3139 13.3932 56.2538C13.7427 56.1937 14.0728 56.1136 14.4223 56.0135V55.6528C14.4223 55.4525 14.4029 55.2722 14.3447 55.0919C14.2864 54.9116 14.2087 54.7714 14.1116 54.6311C13.9951 54.4909 13.8592 54.3907 13.6845 54.3306C13.5097 54.2505 13.3155 54.2104 13.0825 54.2104C12.6942 54.2104 12.3641 54.2505 12.0922 54.3306C11.8204 54.4108 11.6068 54.5109 11.4514 54.6512C11.6262 54.6712 11.7815 54.7313 11.898 54.8315C12.0146 54.9316 12.0728 55.0719 12.0728 55.2722C12.0728 55.4926 11.9951 55.6729 11.8592 55.8131C11.7233 55.9534 11.5097 56.0135 11.2573 56.0135C10.9854 56.0135 10.7913 55.9333 10.6553 55.7931C10.5194 55.6528 10.4612 55.4325 10.4612 55.172C10.4612 54.9717 10.5194 54.7714 10.6359 54.571C10.7524 54.3707 10.9272 54.1904 11.1602 54.0301C11.3932 53.8699 11.6845 53.7497 12.0146 53.6495C12.3641 53.5493 12.7524 53.5093 13.1796 53.5093C13.5291 53.5093 13.8786 53.5493 14.2087 53.6094C14.5388 53.6695 14.8301 53.7897 15.0825 53.95C15.3349 54.1103 15.5291 54.3306 15.6845 54.6111C15.8398 54.8916 15.9175 55.2522 15.9175 55.6729V58.6378H15.9563ZM14.4417 56.4742C13.9563 56.5944 13.5291 56.7146 13.1602 56.8348C12.7913 56.935 12.5 57.0552 12.267 57.1754C12.034 57.2956 11.8592 57.4358 11.7427 57.5961C11.6262 57.7564 11.568 57.9567 11.568 58.1971C11.568 58.4776 11.665 58.6979 11.8592 58.8582C12.0534 59.0185 12.3447 59.0986 12.733 59.0986C13.1214 59.0986 13.4709 58.9984 13.7815 58.7981C14.0922 58.5978 14.3058 58.3774 14.4612 58.117V56.4742H14.4417Z" fill="url(#paint1_linear_1_27)"/>
<path d="M25.6845 54.4308C25.3932 54.4509 25.1213 54.511 24.8495 54.5711C24.5971 54.6512 24.3641 54.7514 24.1505 54.9116L22.9078 55.8332L24.966 58.718C25.0631 58.8582 25.1796 58.9584 25.3155 59.0185C25.4709 59.0786 25.665 59.1187 25.9175 59.1187V59.7998H22.2087V59.1187H22.9078C23.1019 59.1187 23.199 59.0586 23.199 58.9384C23.199 58.8783 23.1602 58.8182 23.1019 58.718L21.665 56.7146L20.5 57.556V58.5978C20.5 58.9584 20.8301 59.1387 21.4709 59.1387V59.8198H17.9563V59.1387C18.6165 59.1387 18.9466 58.9584 18.9466 58.5978V51.8666C18.9466 51.506 18.6165 51.3257 17.9563 51.3257V50.6445H20.5194V56.7547L22.966 54.9317C23.0631 54.8515 23.1213 54.7714 23.1213 54.6512C23.1213 54.5911 23.1019 54.531 23.0437 54.4909C23.0048 54.4509 22.9272 54.4108 22.8107 54.4108H22.267V53.7297H25.6845V54.4308Z" fill="url(#paint2_linear_1_27)"/>
<path d="M38.4029 53.6496L37.6845 53.6896C37.568 52.4876 37.0825 51.8866 36.2282 51.8866H33.568V55.0319H34.966C35.432 55.0319 35.7039 54.531 35.7816 53.5093H36.4806L36.3058 57.4559H35.6262C35.5485 56.4142 35.2961 55.8933 34.8884 55.8933H33.568V58.5577C33.568 58.9183 34.0146 59.0986 34.9272 59.0986V59.7798H30.7719V59.0986C31.4515 59.0986 31.801 58.9183 31.801 58.5577V52.2072C31.801 51.8466 31.4515 51.6663 30.7719 51.6663V50.9651H38.3835V53.6496H38.4029Z" fill="url(#paint3_linear_1_27)"/>
<path d="M45.0437 56.7547C45.0437 57.7964 44.7718 58.5977 44.2087 59.1587C43.665 59.7196 42.8495 60.0001 41.8009 60.0001C41.3932 60.0001 40.9854 59.96 40.6165 59.8598C40.2476 59.7597 39.9175 59.5994 39.6262 59.359C39.3349 59.1186 39.1213 58.7981 38.9466 58.3974C38.7718 57.9967 38.6942 57.4959 38.6942 56.9149C38.6942 55.8331 38.966 54.9917 39.4903 54.4108C40.0145 53.8298 40.8301 53.5293 41.9175 53.5293C42.3446 53.5293 42.733 53.5894 43.1213 53.6896C43.5097 53.7897 43.8398 53.97 44.1116 54.2305C44.3835 54.4709 44.6165 54.8114 44.7718 55.2121C44.966 55.6328 45.0437 56.1336 45.0437 56.7547ZM41.9369 54.3106C41.3543 54.3106 40.9466 54.5109 40.6942 54.8916C40.4417 55.2722 40.3058 55.8331 40.3058 56.5543C40.3058 57.0952 40.3446 57.536 40.4029 57.8765C40.4806 58.2171 40.5776 58.4976 40.7136 58.6979C40.8495 58.8982 41.0048 59.0385 41.199 59.1186C41.3932 59.1987 41.6068 59.2388 41.8398 59.2388C42.4417 59.2388 42.8689 59.0385 43.1213 58.6178C43.3738 58.1971 43.4903 57.5961 43.4903 56.8348C43.4903 56.334 43.4514 55.9333 43.3738 55.5927C43.2961 55.2722 43.199 55.0118 43.0631 54.8114C42.9272 54.6311 42.7718 54.4909 42.5776 54.4108C42.3641 54.3306 42.1505 54.3106 41.9369 54.3106Z" fill="url(#paint4_linear_1_27)"/>
<path d="M52.2864 56.7547C52.2864 57.7964 52.0146 58.5977 51.4515 59.1587C50.9078 59.7196 50.0922 60.0001 49.0437 60.0001C48.6359 60.0001 48.2282 59.96 47.8592 59.8598C47.4903 59.7597 47.1602 59.5994 46.8689 59.359C46.5971 59.1186 46.3641 58.7981 46.1893 58.3974C46.0146 57.9967 45.9369 57.4959 45.9369 56.9149C45.9369 55.8331 46.2087 54.9917 46.733 54.4108C47.2573 53.8298 48.0728 53.5293 49.1602 53.5293C49.5874 53.5293 49.9757 53.5894 50.3641 53.6896C50.7524 53.7897 51.0825 53.97 51.3544 54.2305C51.6262 54.4709 51.8592 54.8114 52.0146 55.2121C52.2087 55.6328 52.2864 56.1336 52.2864 56.7547ZM49.1602 54.3106C48.5777 54.3106 48.1699 54.5109 47.9175 54.8916C47.665 55.2722 47.5291 55.8331 47.5291 56.5543C47.5291 57.0952 47.568 57.536 47.6262 57.8765C47.7039 58.2171 47.801 58.4976 47.9369 58.6979C48.0728 58.8982 48.2282 59.0385 48.4223 59.1186C48.6165 59.1987 48.8301 59.2388 49.0631 59.2388C49.665 59.2388 50.0922 59.0385 50.3447 58.6178C50.5971 58.1971 50.7136 57.5961 50.7136 56.8348C50.7136 56.334 50.6748 55.9333 50.5971 55.5927C50.5194 55.2722 50.4223 55.0118 50.2864 54.8114C50.1505 54.6311 49.9951 54.4909 49.801 54.4108C49.6068 54.3306 49.3932 54.3106 49.1602 54.3106Z" fill="url(#paint5_linear_1_27)"/>
<path d="M59.4708 58.5978C59.4708 58.9584 59.8009 59.1387 60.4806 59.1387V59.8198H58.3058L58.2087 58.8382C58.034 59.2388 57.7233 59.5393 57.3349 59.7397C56.9272 59.94 56.4611 60.0402 55.9369 60.0402C55.5679 60.0402 55.199 59.9801 54.8689 59.8599C54.5388 59.7397 54.2281 59.5594 53.9757 59.2989C53.7233 59.0385 53.5097 58.6979 53.3738 58.2973C53.2184 57.8966 53.1407 57.3958 53.1407 56.8148C53.1407 56.2138 53.2184 55.713 53.3932 55.3123C53.5679 54.8916 53.7815 54.571 54.0534 54.3106C54.3252 54.0502 54.6553 53.8699 55.0048 53.7497C55.3738 53.6295 55.7427 53.5694 56.131 53.5694C56.5 53.5694 56.8495 53.6295 57.1602 53.7296C57.4708 53.8298 57.7233 53.97 57.898 54.1503V51.9066C57.898 51.546 57.5679 51.3657 56.8883 51.3657V50.6846H59.4708V58.5978ZM56.4029 54.2906C56.1116 54.2906 55.8398 54.3507 55.6262 54.4709C55.4126 54.5911 55.2378 54.7513 55.1019 54.9717C54.966 55.1921 54.8689 55.4325 54.8107 55.733C54.7524 56.0335 54.7136 56.354 54.7136 56.7146C54.7136 57.0752 54.7524 57.3958 54.8107 57.6963C54.8689 57.9968 54.9854 58.2372 55.1019 58.4575C55.2184 58.6779 55.4126 58.8382 55.6262 58.9584C55.8398 59.0786 56.0922 59.1387 56.4029 59.1387C56.6941 59.1387 56.9466 59.0786 57.1602 58.9584C57.3738 58.8382 57.5291 58.6779 57.665 58.4575C57.8009 58.2372 57.8786 57.9968 57.9369 57.6963C57.9951 57.3958 58.0145 57.0752 58.0145 56.7146C58.0145 56.354 57.9951 56.0335 57.9369 55.733C57.8786 55.4325 57.7815 55.172 57.665 54.9717C57.5485 54.7714 57.3738 54.5911 57.1602 54.4709C56.966 54.3507 56.7136 54.2906 56.4029 54.2906Z" fill="url(#paint6_linear_1_27)"/>
</g>
<path opacity="0.8" d="M30.5 45.6962C27.9369 45.6962 25.3738 44.6945 23.4126 42.6711L11.2767 30.1503C9.39321 28.207 8.34467 25.6027 8.34467 22.8381C8.34467 20.0735 9.39321 17.4891 11.2767 15.5259L23.4126 3.02504C25.2961 1.0818 27.8204 0 30.5 0C33.1796 0 35.6845 1.0818 37.5874 3.02504L49.7233 15.5459C53.6262 19.5726 53.6262 26.1436 49.7233 30.1703L37.5874 42.6711C35.6262 44.6945 33.0631 45.6962 30.5 45.6962ZM24.6359 41.409C27.8592 44.7346 33.1214 44.7346 36.3447 41.409L48.4806 28.8881C51.7039 25.5626 51.7039 20.1536 48.4806 16.808L36.3447 4.28715C34.7913 2.68447 32.6942 1.78297 30.5 1.78297C28.2864 1.78297 26.2087 2.66444 24.6553 4.28715L12.5194 16.808C10.966 18.4107 10.0922 20.5743 10.0922 22.8381C10.0922 25.1219 10.9466 27.2654 12.5194 28.8681L24.6359 41.409Z" fill="url(#paint7_linear_1_27)"/>
<mask id="mask0_1_27" style="mask-type:luminance" maskUnits="userSpaceOnUse" x="10" y="1" width="41" height="43">
<path d="M30.5 43.8931C28.2864 43.8931 26.2087 43.0117 24.6553 41.389L12.5194 28.8681C9.2961 25.5426 9.2961 20.1335 12.5194 16.808L24.6553 4.28713C26.2087 2.68446 28.2864 1.78296 30.5 1.78296C32.7136 1.78296 34.7913 2.66443 36.3447 4.28713L48.4612 16.828C50.0146 18.4307 50.8883 20.5743 50.8883 22.8581C50.8883 25.1419 50.034 27.2855 48.4612 28.8881L36.3252 41.409C34.7718 43.0117 32.6942 43.8931 30.5 43.8931Z" fill="white"/>
</mask>
<g mask="url(#mask0_1_27)">
<g opacity="0.8">
<path d="M21.432 17.6895C26.9854 17.6895 30.5 21.6561 30.5 28.4073C30.5 35.2788 27.2185 39.5258 21.199 39.5258C15.2379 39.5258 11.9175 35.6594 11.9175 28.6878C11.9175 22.0167 15.8204 17.6895 21.432 17.6895ZM21.335 18.631C16.3252 18.631 15.3155 22.8781 15.3155 28.6477C15.3155 33.9966 16.3641 38.5843 21.2379 38.5843C25.9563 38.5843 27.0437 34.3172 27.0437 28.5275C27.0631 22.8581 26.0728 18.631 21.335 18.631Z" fill="url(#paint8_linear_1_27)"/>
</g>
</g>
<mask id="mask1_1_27" style="mask-type:luminance" maskUnits="userSpaceOnUse" x="10" y="1" width="41" height="43">
<path d="M30.5 43.8931C28.2864 43.8931 26.2087 43.0117 24.6553 41.389L12.5194 28.8681C9.2961 25.5426 9.2961 20.1335 12.5194 16.808L24.6553 4.28713C26.2087 2.68446 28.2864 1.78296 30.5 1.78296C32.7136 1.78296 34.7913 2.66443 36.3447 4.28713L48.4612 16.828C50.0146 18.4307 50.8883 20.5743 50.8883 22.8581C50.8883 25.1419 50.034 27.2855 48.4612 28.8881L36.3252 41.409C34.7718 43.0117 32.6942 43.8931 30.5 43.8931Z" fill="white"/>
</mask>
<g mask="url(#mask1_1_27)">
<g opacity="0.8">
<path d="M44.9078 9.636L45.199 15.4858H44.5C43.9175 10.9782 42.1893 10.5175 38.5388 10.5175H35.8981V19.7729H37.568C39.9369 19.7729 40.5583 19.0517 41.0243 15.9065H41.6456V24.8614H40.966C40.4417 21.5358 39.9757 20.7345 37.2767 20.7345H35.8981V29.9298H39.6845V30.8113H30.5V29.9298H32.8107V10.4974H30.5V9.61597H44.9078V9.636Z" fill="url(#paint9_linear_1_27)"/>
</g>
</g>
</g>
<defs>
<linearGradient id="paint0_linear_1_27" x1="-3.1501" y1="55.3956" x2="68.3588" y2="55.3956" gradientUnits="userSpaceOnUse">
<stop stop-color="#FCF3A3"/>
<stop offset="0.083521" stop-color="#F7E189"/>
<stop offset="0.2592" stop-color="#E7B245"/>
<stop offset="0.2896" stop-color="#E4A939"/>
<stop offset="0.3191" stop-color="#E7B345"/>
<stop offset="0.4346" stop-color="#F3D674"/>
<stop offset="0.5248" stop-color="#FAEB91"/>
<stop offset="0.578" stop-color="#FDF39C"/>
<stop offset="0.6184" stop-color="#FBEE96"/>
<stop offset="0.6722" stop-color="#F7E183"/>
<stop offset="0.7338" stop-color="#EFCA64"/>
<stop offset="0.8006" stop-color="#E5AB3B"/>
<stop offset="0.8043" stop-color="#E4A939"/>
<stop offset="0.8312" stop-color="#E9B64B"/>
<stop offset="0.9065" stop-color="#F4D87B"/>
<stop offset="0.9653" stop-color="#FAEC98"/>
<stop offset="1" stop-color="#FCF3A3"/>
</linearGradient>
<linearGradient id="paint1_linear_1_27" x1="-3.15011" y1="56.7572" x2="68.3588" y2="56.7572" gradientUnits="userSpaceOnUse">
<stop stop-color="#FCF3A3"/>
<stop offset="0.083521" stop-color="#F7E189"/>
<stop offset="0.2592" stop-color="#E7B245"/>
<stop offset="0.2896" stop-color="#E4A939"/>
<stop offset="0.3191" stop-color="#E7B345"/>
<stop offset="0.4346" stop-color="#F3D674"/>
<stop offset="0.5248" stop-color="#FAEB91"/>
<stop offset="0.578" stop-color="#FDF39C"/>
<stop offset="0.6184" stop-color="#FBEE96"/>
<stop offset="0.6722" stop-color="#F7E183"/>
<stop offset="0.7338" stop-color="#EFCA64"/>
<stop offset="0.8006" stop-color="#E5AB3B"/>
<stop offset="0.8043" stop-color="#E4A939"/>
<stop offset="0.8312" stop-color="#E9B64B"/>
<stop offset="0.9065" stop-color="#F4D87B"/>
<stop offset="0.9653" stop-color="#FAEC98"/>
<stop offset="1" stop-color="#FCF3A3"/>
</linearGradient>
<linearGradient id="paint2_linear_1_27" x1="-3.1501" y1="55.2291" x2="68.3588" y2="55.2291" gradientUnits="userSpaceOnUse">
<stop stop-color="#FCF3A3"/>
<stop offset="0.083521" stop-color="#F7E189"/>
<stop offset="0.2592" stop-color="#E7B245"/>
<stop offset="0.2896" stop-color="#E4A939"/>
<stop offset="0.3191" stop-color="#E7B345"/>
<stop offset="0.4346" stop-color="#F3D674"/>
<stop offset="0.5248" stop-color="#FAEB91"/>
<stop offset="0.578" stop-color="#FDF39C"/>
<stop offset="0.6184" stop-color="#FBEE96"/>
<stop offset="0.6722" stop-color="#F7E183"/>
<stop offset="0.7338" stop-color="#EFCA64"/>
<stop offset="0.8006" stop-color="#E5AB3B"/>
<stop offset="0.8043" stop-color="#E4A939"/>
<stop offset="0.8312" stop-color="#E9B64B"/>
<stop offset="0.9065" stop-color="#F4D87B"/>
<stop offset="0.9653" stop-color="#FAEC98"/>
<stop offset="1" stop-color="#FCF3A3"/>
</linearGradient>
<linearGradient id="paint3_linear_1_27" x1="-3.15009" y1="55.3897" x2="68.3588" y2="55.3897" gradientUnits="userSpaceOnUse">
<stop stop-color="#FCF3A3"/>
<stop offset="0.083521" stop-color="#F7E189"/>
<stop offset="0.2592" stop-color="#E7B245"/>
<stop offset="0.2896" stop-color="#E4A939"/>
<stop offset="0.3191" stop-color="#E7B345"/>
<stop offset="0.4346" stop-color="#F3D674"/>
<stop offset="0.5248" stop-color="#FAEB91"/>
<stop offset="0.578" stop-color="#FDF39C"/>
<stop offset="0.6184" stop-color="#FBEE96"/>
<stop offset="0.6722" stop-color="#F7E183"/>
<stop offset="0.7338" stop-color="#EFCA64"/>
<stop offset="0.8006" stop-color="#E5AB3B"/>
<stop offset="0.8043" stop-color="#E4A939"/>
<stop offset="0.8312" stop-color="#E9B64B"/>
<stop offset="0.9065" stop-color="#F4D87B"/>
<stop offset="0.9653" stop-color="#FAEC98"/>
<stop offset="1" stop-color="#FCF3A3"/>
</linearGradient>
<linearGradient id="paint4_linear_1_27" x1="-3.15012" y1="56.7691" x2="68.3588" y2="56.7691" gradientUnits="userSpaceOnUse">
<stop stop-color="#FCF3A3"/>
<stop offset="0.083521" stop-color="#F7E189"/>
<stop offset="0.2592" stop-color="#E7B245"/>
<stop offset="0.2896" stop-color="#E4A939"/>
<stop offset="0.3191" stop-color="#E7B345"/>
<stop offset="0.4346" stop-color="#F3D674"/>
<stop offset="0.5248" stop-color="#FAEB91"/>
<stop offset="0.578" stop-color="#FDF39C"/>
<stop offset="0.6184" stop-color="#FBEE96"/>
<stop offset="0.6722" stop-color="#F7E183"/>
<stop offset="0.7338" stop-color="#EFCA64"/>
<stop offset="0.8006" stop-color="#E5AB3B"/>
<stop offset="0.8043" stop-color="#E4A939"/>
<stop offset="0.8312" stop-color="#E9B64B"/>
<stop offset="0.9065" stop-color="#F4D87B"/>
<stop offset="0.9653" stop-color="#FAEC98"/>
<stop offset="1" stop-color="#FCF3A3"/>
</linearGradient>
<linearGradient id="paint5_linear_1_27" x1="-3.15012" y1="56.7691" x2="68.3588" y2="56.7691" gradientUnits="userSpaceOnUse">
<stop stop-color="#FCF3A3"/>
<stop offset="0.083521" stop-color="#F7E189"/>
<stop offset="0.2592" stop-color="#E7B245"/>
<stop offset="0.2896" stop-color="#E4A939"/>
<stop offset="0.3191" stop-color="#E7B345"/>
<stop offset="0.4346" stop-color="#F3D674"/>
<stop offset="0.5248" stop-color="#FAEB91"/>
<stop offset="0.578" stop-color="#FDF39C"/>
<stop offset="0.6184" stop-color="#FBEE96"/>
<stop offset="0.6722" stop-color="#F7E183"/>
<stop offset="0.7338" stop-color="#EFCA64"/>
<stop offset="0.8006" stop-color="#E5AB3B"/>
<stop offset="0.8043" stop-color="#E4A939"/>
<stop offset="0.8312" stop-color="#E9B64B"/>
<stop offset="0.9065" stop-color="#F4D87B"/>
<stop offset="0.9653" stop-color="#FAEC98"/>
<stop offset="1" stop-color="#FCF3A3"/>
</linearGradient>
<linearGradient id="paint6_linear_1_27" x1="-3.15011" y1="55.3302" x2="68.3587" y2="55.3302" gradientUnits="userSpaceOnUse">
<stop stop-color="#FCF3A3"/>
<stop offset="0.083521" stop-color="#F7E189"/>
<stop offset="0.2592" stop-color="#E7B245"/>
<stop offset="0.2896" stop-color="#E4A939"/>
<stop offset="0.3191" stop-color="#E7B345"/>
<stop offset="0.4346" stop-color="#F3D674"/>
<stop offset="0.5248" stop-color="#FAEB91"/>
<stop offset="0.578" stop-color="#FDF39C"/>
<stop offset="0.6184" stop-color="#FBEE96"/>
<stop offset="0.6722" stop-color="#F7E183"/>
<stop offset="0.7338" stop-color="#EFCA64"/>
<stop offset="0.8006" stop-color="#E5AB3B"/>
<stop offset="0.8043" stop-color="#E4A939"/>
<stop offset="0.8312" stop-color="#E9B64B"/>
<stop offset="0.9065" stop-color="#F4D87B"/>
<stop offset="0.9653" stop-color="#FAEC98"/>
<stop offset="1" stop-color="#FCF3A3"/>
</linearGradient>
<linearGradient id="paint7_linear_1_27" x1="-3.96269" y1="22.8495" x2="79.2466" y2="22.8495" gradientUnits="userSpaceOnUse">
<stop stop-color="#FCF3A3"/>
<stop offset="0.083521" stop-color="#F7E189"/>
<stop offset="0.2592" stop-color="#E7B245"/>
<stop offset="0.2896" stop-color="#E4A939"/>
<stop offset="0.3191" stop-color="#E7B345"/>
<stop offset="0.4346" stop-color="#F3D674"/>
<stop offset="0.5248" stop-color="#FAEB91"/>
<stop offset="0.578" stop-color="#FDF39C"/>
<stop offset="0.6184" stop-color="#FBEE96"/>
<stop offset="0.6722" stop-color="#F7E183"/>
<stop offset="0.7338" stop-color="#EFCA64"/>
<stop offset="0.8006" stop-color="#E5AB3B"/>
<stop offset="0.8043" stop-color="#E4A939"/>
<stop offset="0.8312" stop-color="#E9B64B"/>
<stop offset="0.9065" stop-color="#F4D87B"/>
<stop offset="0.9653" stop-color="#FAEC98"/>
<stop offset="1" stop-color="#FCF3A3"/>
</linearGradient>
<linearGradient id="paint8_linear_1_27" x1="3.17082" y1="28.6038" x2="76.1527" y2="28.6038" gradientUnits="userSpaceOnUse">
<stop stop-color="#FCF3A3"/>
<stop offset="0.083521" stop-color="#F7E189"/>
<stop offset="0.2592" stop-color="#E7B245"/>
<stop offset="0.2896" stop-color="#E4A939"/>
<stop offset="0.3191" stop-color="#E7B345"/>
<stop offset="0.4346" stop-color="#F3D674"/>
<stop offset="0.5248" stop-color="#FAEB91"/>
<stop offset="0.578" stop-color="#FDF39C"/>
<stop offset="0.6184" stop-color="#FBEE96"/>
<stop offset="0.6722" stop-color="#F7E183"/>
<stop offset="0.7338" stop-color="#EFCA64"/>
<stop offset="0.8006" stop-color="#E5AB3B"/>
<stop offset="0.8043" stop-color="#E4A939"/>
<stop offset="0.8312" stop-color="#E9B64B"/>
<stop offset="0.9065" stop-color="#F4D87B"/>
<stop offset="0.9653" stop-color="#FAEC98"/>
<stop offset="1" stop-color="#FCF3A3"/>
</linearGradient>
<linearGradient id="paint9_linear_1_27" x1="3.17082" y1="20.2342" x2="76.1527" y2="20.2342" gradientUnits="userSpaceOnUse">
<stop stop-color="#FCF3A3"/>
<stop offset="0.083521" stop-color="#F7E189"/>
<stop offset="0.2592" stop-color="#E7B245"/>
<stop offset="0.2896" stop-color="#E4A939"/>
<stop offset="0.3191" stop-color="#E7B345"/>
<stop offset="0.4346" stop-color="#F3D674"/>
<stop offset="0.5248" stop-color="#FAEB91"/>
<stop offset="0.578" stop-color="#FDF39C"/>
<stop offset="0.6184" stop-color="#FBEE96"/>
<stop offset="0.6722" stop-color="#F7E183"/>
<stop offset="0.7338" stop-color="#EFCA64"/>
<stop offset="0.8006" stop-color="#E5AB3B"/>
<stop offset="0.8043" stop-color="#E4A939"/>
<stop offset="0.8312" stop-color="#E9B64B"/>
<stop offset="0.9065" stop-color="#F4D87B"/>
<stop offset="0.9653" stop-color="#FAEC98"/>
<stop offset="1" stop-color="#FCF3A3"/>
</linearGradient>
<clipPath id="clip0_1_27">
<rect width="60" height="60" fill="white" transform="translate(0.5)"/>
</clipPath>
</defs>
</svg>
