<svg width="440" height="440" viewBox="0 0 440 440" fill="none" xmlns="http://www.w3.org/2000/svg">
<g clip-path="url(#clip0_201_2285)">
<g opacity="0.8">
<path d="M32.6084 372.421C37.1651 372.421 41.2945 373.008 45.1392 374.184C48.9838 375.359 52.2589 377.269 55.1068 379.913C57.9547 382.558 60.0906 386.083 61.657 390.344C63.2233 394.604 64.0777 399.893 64.0777 406.21C64.0777 411.352 63.3657 416.053 62.0841 420.167C60.8026 424.28 58.6667 427.806 55.9612 430.745C53.2557 433.683 49.8382 435.886 45.7087 437.502C41.5793 439.118 36.7379 439.853 31.3269 439.853C26.9126 439.853 22.7832 439.265 18.9385 438.237C15.0939 437.062 11.8188 435.299 8.97087 432.801C6.12298 430.304 3.98706 426.925 2.42071 422.811C0.854369 418.698 0 413.556 0 407.532C0 402.097 0.569579 397.249 1.85113 392.988C3.13269 388.728 4.98382 384.908 7.68932 381.97C10.3948 378.885 13.6699 376.534 17.7994 374.918C21.9288 373.302 26.9126 372.421 32.6084 372.421ZM33.0356 379.619C29.4757 379.619 26.4854 380.207 23.9223 381.235C21.3592 382.264 19.3657 383.88 17.657 385.937C16.0906 387.993 14.8091 390.491 14.0971 393.429C13.3851 396.367 12.9579 399.746 12.9579 403.566C12.9579 409.442 13.3851 414.29 14.2395 417.963C15.0939 421.783 16.233 424.721 17.9417 426.925C19.5081 429.129 21.5016 430.598 23.6375 431.479C25.9159 432.361 28.479 432.801 31.1845 432.801C34.8867 432.801 38.0194 432.214 40.5825 431.038C43.1456 429.863 45.1392 428.247 46.7055 426.043C48.2718 423.84 49.2686 421.195 49.9806 417.963C50.6926 414.731 50.9773 411.058 50.9773 406.798C50.9773 401.362 50.5502 396.955 49.6958 393.429C48.8414 389.903 47.5599 387.112 45.9935 385.202C44.4272 383.145 42.5761 381.676 40.2977 380.942C38.1618 380.06 35.7411 379.619 33.0356 379.619Z" fill="url(#paint0_linear_201_2285)"/>
<path d="M113.346 430.01C113.346 432.507 114.2 433.83 115.909 433.83C116.763 433.83 117.333 433.389 117.618 432.654C118.045 431.92 118.187 431.038 118.187 430.01V424.868H122.174V428.835C122.174 430.745 121.89 432.361 121.463 433.683C121.035 435.005 120.323 436.033 119.469 436.915C118.615 437.796 117.618 438.384 116.479 438.678C115.34 438.972 114.058 439.265 112.776 439.265C111.21 439.265 109.929 438.972 108.932 438.531C107.793 438.09 106.938 437.356 106.226 436.621C105.514 435.74 104.945 434.858 104.518 433.83C104.09 432.801 103.806 431.626 103.521 430.451C102.951 431.773 102.097 432.948 100.958 434.123C99.8185 435.299 98.5369 436.327 96.9706 437.209C95.4043 438.09 93.6955 438.825 91.8444 439.412C89.9933 440 87.8573 440.147 85.7214 440.147C80.4528 440.147 76.6081 438.972 74.045 436.768C71.6243 434.564 70.3428 431.479 70.3428 427.659C70.3428 425.309 70.77 423.399 71.6243 421.93C72.4787 420.461 73.7602 419.139 75.3266 418.11C76.8929 417.082 78.7441 416.2 80.7376 415.613C82.7311 415.025 85.0094 414.437 87.2878 413.997C89.5661 413.556 91.9868 412.968 94.5499 412.527C97.113 412.087 99.5337 411.499 102.097 410.765V408.12C102.097 406.651 101.954 405.329 101.527 404.007C101.1 402.684 100.53 401.656 99.8185 400.628C98.9641 399.599 97.9674 398.865 96.6858 398.424C95.4043 397.836 93.9803 397.543 92.2716 397.543C89.4237 397.543 87.003 397.836 85.0094 398.424C83.0159 399.012 81.4496 399.746 80.3104 400.775C81.592 400.921 82.7311 401.362 83.5855 402.097C84.4399 402.831 84.867 403.86 84.867 405.329C84.867 406.945 84.2975 408.267 83.3007 409.295C82.3039 410.324 80.7376 410.765 78.8865 410.765C76.8929 410.765 75.469 410.177 74.4722 409.149C73.4755 408.12 73.0483 406.504 73.0483 404.594C73.0483 403.125 73.4755 401.656 74.3298 400.187C75.1842 398.718 76.4658 397.396 78.1745 396.22C79.8832 395.045 82.0191 394.164 84.4399 393.429C87.003 392.694 89.8509 392.401 92.9836 392.401C95.5467 392.401 98.1098 392.694 100.53 393.135C102.951 393.576 105.087 394.457 106.938 395.633C108.789 396.808 110.213 398.424 111.352 400.481C112.492 402.538 113.061 405.182 113.061 408.267V430.01H113.346ZM102.239 414.144C98.6793 415.025 95.5467 415.906 92.8412 416.788C90.1357 417.523 87.9997 418.404 86.291 419.285C84.5823 420.167 83.3007 421.195 82.4463 422.371C81.592 423.546 81.1648 425.015 81.1648 426.778C81.1648 428.835 81.8768 430.451 83.3007 431.626C84.7247 432.801 86.8606 433.389 89.7085 433.389C92.5564 433.389 95.1195 432.654 97.3978 431.185C99.6761 429.716 101.242 428.1 102.382 426.19V414.144H102.239Z" fill="url(#paint1_linear_201_2285)"/>
<path d="M184.686 399.159C182.55 399.306 180.556 399.746 178.563 400.187C176.712 400.775 175.003 401.509 173.437 402.684L164.323 409.442L179.417 430.598C180.129 431.626 180.984 432.361 181.98 432.801C183.119 433.242 184.543 433.536 186.395 433.536V438.531H159.197V433.536H164.323C165.747 433.536 166.459 433.095 166.459 432.214C166.459 431.773 166.175 431.332 165.747 430.598L155.21 415.907L146.666 422.077V429.716C146.666 432.361 149.087 433.683 153.786 433.683V438.678H128.013V433.683C132.854 433.683 135.275 432.361 135.275 429.716V380.354C135.275 377.71 132.854 376.387 128.013 376.387V371.392H146.809V416.2L164.751 402.831C165.463 402.244 165.89 401.656 165.89 400.775C165.89 400.334 165.747 399.893 165.32 399.599C165.035 399.306 164.466 399.012 163.611 399.012H159.624V394.017H184.686V399.159Z" fill="url(#paint2_linear_201_2285)"/>
<path d="M277.954 393.429L272.686 393.723C271.831 384.908 268.271 380.501 262.006 380.501H242.498V403.566H252.75C256.168 403.566 258.161 399.893 258.731 392.401H263.857L262.576 421.342H257.592C257.022 413.703 255.171 409.883 252.181 409.883H242.498V429.422C242.498 432.067 245.773 433.389 252.466 433.389V438.384H221.993V433.389C226.977 433.389 229.54 432.067 229.54 429.422V382.851C229.54 380.207 226.977 378.885 221.993 378.885V373.743H277.812V393.429H277.954Z" fill="url(#paint3_linear_201_2285)"/>
<path d="M326.654 416.2C326.654 423.84 324.66 429.716 320.531 433.83C316.544 437.943 310.563 440 302.874 440C299.884 440 296.893 439.706 294.188 438.972C291.482 438.237 289.062 437.062 286.926 435.299C284.79 433.536 283.224 431.185 281.942 428.247C280.66 425.309 280.091 421.636 280.091 417.376C280.091 409.442 282.084 403.272 285.929 399.012C289.774 394.751 295.754 392.548 303.728 392.548C306.861 392.548 309.709 392.988 312.557 393.723C315.405 394.457 317.825 395.78 319.819 397.69C321.813 399.452 323.521 401.95 324.66 404.888C326.084 407.973 326.654 411.646 326.654 416.2ZM303.871 398.277C299.599 398.277 296.609 399.746 294.757 402.538C292.906 405.329 291.91 409.442 291.91 414.731C291.91 418.698 292.194 421.93 292.622 424.427C293.191 426.925 293.903 428.982 294.9 430.451C295.897 431.92 297.036 432.948 298.46 433.536C299.884 434.124 301.45 434.417 303.159 434.417C307.573 434.417 310.706 432.948 312.557 429.863C314.408 426.778 315.262 422.371 315.262 416.788C315.262 413.115 314.978 410.177 314.408 407.679C313.838 405.329 313.126 403.419 312.13 401.95C311.133 400.628 309.994 399.599 308.57 399.012C307.003 398.424 305.437 398.277 303.871 398.277Z" fill="url(#paint4_linear_201_2285)"/>
<path d="M379.767 416.2C379.767 423.84 377.774 429.716 373.644 433.83C369.657 437.943 363.677 440 355.987 440C352.997 440 350.007 439.706 347.301 438.972C344.596 438.237 342.175 437.062 340.039 435.299C338.046 433.536 336.337 431.185 335.055 428.247C333.774 425.309 333.204 421.636 333.204 417.376C333.204 409.442 335.198 403.272 339.042 399.012C342.887 394.751 348.868 392.548 356.842 392.548C359.974 392.548 362.822 392.988 365.67 393.723C368.518 394.457 370.939 395.78 372.932 397.69C374.926 399.452 376.635 401.95 377.774 404.888C379.198 407.973 379.767 411.646 379.767 416.2ZM356.842 398.277C352.57 398.277 349.58 399.746 347.728 402.538C345.877 405.329 344.88 409.442 344.88 414.731C344.88 418.698 345.165 421.93 345.592 424.427C346.162 426.925 346.874 428.982 347.871 430.451C348.868 431.92 350.007 432.948 351.431 433.536C352.855 434.124 354.421 434.417 356.13 434.417C360.544 434.417 363.677 432.948 365.528 429.863C367.379 426.778 368.233 422.371 368.233 416.788C368.233 413.115 367.948 410.177 367.379 407.679C366.809 405.329 366.097 403.419 365.101 401.95C364.104 400.628 362.965 399.599 361.541 399.012C360.117 398.424 358.55 398.277 356.842 398.277Z" fill="url(#paint5_linear_201_2285)"/>
<path d="M432.453 429.716C432.453 432.361 434.874 433.683 439.857 433.683V438.678H423.909L423.197 431.479C421.916 434.417 419.637 436.621 416.79 438.09C413.799 439.559 410.382 440.294 406.537 440.294C403.832 440.294 401.126 439.853 398.705 438.972C396.285 438.09 394.006 436.768 392.155 434.858C390.304 432.948 388.738 430.451 387.741 427.513C386.602 424.574 386.032 420.902 386.032 416.641C386.032 412.234 386.602 408.561 387.883 405.623C389.165 402.538 390.731 400.187 392.725 398.277C394.718 396.367 397.139 395.045 399.702 394.164C402.408 393.282 405.113 392.841 407.961 392.841C410.667 392.841 413.23 393.282 415.508 394.017C417.786 394.751 419.637 395.78 420.919 397.102V380.648C420.919 378.003 418.498 376.681 413.514 376.681V371.686H432.453V429.716ZM409.955 398.13C407.819 398.13 405.825 398.571 404.259 399.452C402.692 400.334 401.411 401.509 400.414 403.125C399.417 404.741 398.705 406.504 398.278 408.708C397.851 410.912 397.566 413.262 397.566 415.907C397.566 418.551 397.851 420.902 398.278 423.105C398.705 425.309 399.56 427.072 400.414 428.688C401.268 430.304 402.692 431.479 404.259 432.361C405.825 433.242 407.676 433.683 409.955 433.683C412.09 433.683 413.942 433.242 415.508 432.361C417.074 431.479 418.213 430.304 419.21 428.688C420.207 427.072 420.777 425.309 421.204 423.105C421.631 420.902 421.773 418.551 421.773 415.907C421.773 413.262 421.631 410.912 421.204 408.708C420.777 406.504 420.065 404.594 419.21 403.125C418.356 401.656 417.074 400.334 415.508 399.452C414.084 398.571 412.233 398.13 409.955 398.13Z" fill="url(#paint6_linear_201_2285)"/>
</g>
<path opacity="0.8" d="M220 335.105C201.204 335.105 182.408 327.76 168.026 312.922L79.029 221.102C65.2167 206.851 57.5273 187.753 57.5273 167.479C57.5273 147.205 65.2167 128.254 79.029 113.856L168.026 22.1836C181.838 7.93322 200.349 0 220 0C239.65 0 258.019 7.93322 271.974 22.1836L360.971 114.003C389.592 143.533 389.592 191.72 360.971 221.249L271.974 312.922C257.592 327.76 238.796 335.105 220 335.105ZM176.997 303.666C200.634 328.053 239.223 328.053 262.861 303.666L351.857 211.846C375.495 187.459 375.495 147.793 351.857 123.259L262.861 31.4391C251.469 19.6861 236.09 13.0751 220 13.0751C203.767 13.0751 188.531 19.5392 177.139 31.4391L88.1422 123.259C76.7506 135.012 70.3429 150.878 70.3429 167.479C70.3429 184.227 76.6082 199.947 88.1422 211.7L176.997 303.666Z" fill="url(#paint7_linear_201_2285)"/>
<mask id="mask0_201_2285" style="mask-type:luminance" maskUnits="userSpaceOnUse" x="70" y="13" width="300" height="309">
<path d="M220 321.883C203.767 321.883 188.531 315.419 177.139 303.519L88.1422 211.7C64.5047 187.312 64.5047 147.646 88.1422 123.259L177.139 31.4391C188.531 19.6862 203.767 13.0751 220 13.0751C236.233 13.0751 251.469 19.5392 262.861 31.4391L351.715 123.406C363.107 135.159 369.514 150.878 369.514 167.626C369.514 184.374 363.249 200.093 351.715 211.846L262.718 303.666C251.327 315.419 236.09 321.883 220 321.883Z" fill="white"/>
</mask>
<g mask="url(#mask0_201_2285)">
<g opacity="0.8">
<path d="M153.501 129.723C194.226 129.723 219.999 158.811 219.999 208.321C219.999 258.711 195.935 289.856 151.792 289.856C108.077 289.856 83.7275 261.503 83.7275 210.377C83.7275 161.456 112.349 129.723 153.501 129.723ZM152.789 136.628C116.051 136.628 108.647 167.773 108.647 210.084C108.647 249.309 116.336 282.952 152.077 282.952C186.679 282.952 194.653 251.659 194.653 209.202C194.795 167.626 187.533 136.628 152.789 136.628Z" fill="url(#paint8_linear_201_2285)"/>
</g>
</g>
<mask id="mask1_201_2285" style="mask-type:luminance" maskUnits="userSpaceOnUse" x="70" y="13" width="300" height="309">
<path d="M220 321.883C203.767 321.883 188.531 315.419 177.139 303.519L88.1422 211.7C64.5047 187.312 64.5047 147.646 88.1422 123.259L177.139 31.4391C188.531 19.6862 203.767 13.0751 220 13.0751C236.233 13.0751 251.469 19.5392 262.861 31.4391L351.715 123.406C363.107 135.159 369.514 150.878 369.514 167.626C369.514 184.374 363.249 200.093 351.715 211.846L262.718 303.666C251.327 315.419 236.09 321.883 220 321.883Z" fill="white"/>
</mask>
<g mask="url(#mask1_201_2285)">
<g opacity="0.8">
<path d="M325.657 70.6644L327.793 113.563H322.667C318.395 80.5075 305.722 77.1285 278.951 77.1285H259.586V145.002H271.832C289.204 145.002 293.761 139.713 297.178 116.648H301.735V182.317H296.751C292.906 157.93 289.489 152.053 269.696 152.053H259.586V219.486H287.353V225.95H220V219.486H236.945V76.9816H220V70.5175H325.657V70.6644Z" fill="url(#paint9_linear_201_2285)"/>
</g>
</g>
</g>
<defs>
<linearGradient id="paint0_linear_201_2285" x1="-26.7674" y1="406.234" x2="497.631" y2="406.234" gradientUnits="userSpaceOnUse">
<stop stop-color="#FCF3A3"/>
<stop offset="0.083521" stop-color="#F7E189"/>
<stop offset="0.2592" stop-color="#E7B245"/>
<stop offset="0.2896" stop-color="#E4A939"/>
<stop offset="0.3191" stop-color="#E7B345"/>
<stop offset="0.4346" stop-color="#F3D674"/>
<stop offset="0.5248" stop-color="#FAEB91"/>
<stop offset="0.578" stop-color="#FDF39C"/>
<stop offset="0.6184" stop-color="#FBEE96"/>
<stop offset="0.6722" stop-color="#F7E183"/>
<stop offset="0.7338" stop-color="#EFCA64"/>
<stop offset="0.8006" stop-color="#E5AB3B"/>
<stop offset="0.8043" stop-color="#E4A939"/>
<stop offset="0.8312" stop-color="#E9B64B"/>
<stop offset="0.9065" stop-color="#F4D87B"/>
<stop offset="0.9653" stop-color="#FAEC98"/>
<stop offset="1" stop-color="#FCF3A3"/>
</linearGradient>
<linearGradient id="paint1_linear_201_2285" x1="-26.7677" y1="416.219" x2="497.631" y2="416.219" gradientUnits="userSpaceOnUse">
<stop stop-color="#FCF3A3"/>
<stop offset="0.083521" stop-color="#F7E189"/>
<stop offset="0.2592" stop-color="#E7B245"/>
<stop offset="0.2896" stop-color="#E4A939"/>
<stop offset="0.3191" stop-color="#E7B345"/>
<stop offset="0.4346" stop-color="#F3D674"/>
<stop offset="0.5248" stop-color="#FAEB91"/>
<stop offset="0.578" stop-color="#FDF39C"/>
<stop offset="0.6184" stop-color="#FBEE96"/>
<stop offset="0.6722" stop-color="#F7E183"/>
<stop offset="0.7338" stop-color="#EFCA64"/>
<stop offset="0.8006" stop-color="#E5AB3B"/>
<stop offset="0.8043" stop-color="#E4A939"/>
<stop offset="0.8312" stop-color="#E9B64B"/>
<stop offset="0.9065" stop-color="#F4D87B"/>
<stop offset="0.9653" stop-color="#FAEC98"/>
<stop offset="1" stop-color="#FCF3A3"/>
</linearGradient>
<linearGradient id="paint2_linear_201_2285" x1="-26.7676" y1="405.012" x2="497.631" y2="405.012" gradientUnits="userSpaceOnUse">
<stop stop-color="#FCF3A3"/>
<stop offset="0.083521" stop-color="#F7E189"/>
<stop offset="0.2592" stop-color="#E7B245"/>
<stop offset="0.2896" stop-color="#E4A939"/>
<stop offset="0.3191" stop-color="#E7B345"/>
<stop offset="0.4346" stop-color="#F3D674"/>
<stop offset="0.5248" stop-color="#FAEB91"/>
<stop offset="0.578" stop-color="#FDF39C"/>
<stop offset="0.6184" stop-color="#FBEE96"/>
<stop offset="0.6722" stop-color="#F7E183"/>
<stop offset="0.7338" stop-color="#EFCA64"/>
<stop offset="0.8006" stop-color="#E5AB3B"/>
<stop offset="0.8043" stop-color="#E4A939"/>
<stop offset="0.8312" stop-color="#E9B64B"/>
<stop offset="0.9065" stop-color="#F4D87B"/>
<stop offset="0.9653" stop-color="#FAEC98"/>
<stop offset="1" stop-color="#FCF3A3"/>
</linearGradient>
<linearGradient id="paint3_linear_201_2285" x1="-26.7677" y1="406.19" x2="497.631" y2="406.19" gradientUnits="userSpaceOnUse">
<stop stop-color="#FCF3A3"/>
<stop offset="0.083521" stop-color="#F7E189"/>
<stop offset="0.2592" stop-color="#E7B245"/>
<stop offset="0.2896" stop-color="#E4A939"/>
<stop offset="0.3191" stop-color="#E7B345"/>
<stop offset="0.4346" stop-color="#F3D674"/>
<stop offset="0.5248" stop-color="#FAEB91"/>
<stop offset="0.578" stop-color="#FDF39C"/>
<stop offset="0.6184" stop-color="#FBEE96"/>
<stop offset="0.6722" stop-color="#F7E183"/>
<stop offset="0.7338" stop-color="#EFCA64"/>
<stop offset="0.8006" stop-color="#E5AB3B"/>
<stop offset="0.8043" stop-color="#E4A939"/>
<stop offset="0.8312" stop-color="#E9B64B"/>
<stop offset="0.9065" stop-color="#F4D87B"/>
<stop offset="0.9653" stop-color="#FAEC98"/>
<stop offset="1" stop-color="#FCF3A3"/>
</linearGradient>
<linearGradient id="paint4_linear_201_2285" x1="-26.7672" y1="416.306" x2="497.631" y2="416.306" gradientUnits="userSpaceOnUse">
<stop stop-color="#FCF3A3"/>
<stop offset="0.083521" stop-color="#F7E189"/>
<stop offset="0.2592" stop-color="#E7B245"/>
<stop offset="0.2896" stop-color="#E4A939"/>
<stop offset="0.3191" stop-color="#E7B345"/>
<stop offset="0.4346" stop-color="#F3D674"/>
<stop offset="0.5248" stop-color="#FAEB91"/>
<stop offset="0.578" stop-color="#FDF39C"/>
<stop offset="0.6184" stop-color="#FBEE96"/>
<stop offset="0.6722" stop-color="#F7E183"/>
<stop offset="0.7338" stop-color="#EFCA64"/>
<stop offset="0.8006" stop-color="#E5AB3B"/>
<stop offset="0.8043" stop-color="#E4A939"/>
<stop offset="0.8312" stop-color="#E9B64B"/>
<stop offset="0.9065" stop-color="#F4D87B"/>
<stop offset="0.9653" stop-color="#FAEC98"/>
<stop offset="1" stop-color="#FCF3A3"/>
</linearGradient>
<linearGradient id="paint5_linear_201_2285" x1="-26.7673" y1="416.306" x2="497.631" y2="416.306" gradientUnits="userSpaceOnUse">
<stop stop-color="#FCF3A3"/>
<stop offset="0.083521" stop-color="#F7E189"/>
<stop offset="0.2592" stop-color="#E7B245"/>
<stop offset="0.2896" stop-color="#E4A939"/>
<stop offset="0.3191" stop-color="#E7B345"/>
<stop offset="0.4346" stop-color="#F3D674"/>
<stop offset="0.5248" stop-color="#FAEB91"/>
<stop offset="0.578" stop-color="#FDF39C"/>
<stop offset="0.6184" stop-color="#FBEE96"/>
<stop offset="0.6722" stop-color="#F7E183"/>
<stop offset="0.7338" stop-color="#EFCA64"/>
<stop offset="0.8006" stop-color="#E5AB3B"/>
<stop offset="0.8043" stop-color="#E4A939"/>
<stop offset="0.8312" stop-color="#E9B64B"/>
<stop offset="0.9065" stop-color="#F4D87B"/>
<stop offset="0.9653" stop-color="#FAEC98"/>
<stop offset="1" stop-color="#FCF3A3"/>
</linearGradient>
<linearGradient id="paint6_linear_201_2285" x1="-26.7674" y1="405.754" x2="497.631" y2="405.754" gradientUnits="userSpaceOnUse">
<stop stop-color="#FCF3A3"/>
<stop offset="0.083521" stop-color="#F7E189"/>
<stop offset="0.2592" stop-color="#E7B245"/>
<stop offset="0.2896" stop-color="#E4A939"/>
<stop offset="0.3191" stop-color="#E7B345"/>
<stop offset="0.4346" stop-color="#F3D674"/>
<stop offset="0.5248" stop-color="#FAEB91"/>
<stop offset="0.578" stop-color="#FDF39C"/>
<stop offset="0.6184" stop-color="#FBEE96"/>
<stop offset="0.6722" stop-color="#F7E183"/>
<stop offset="0.7338" stop-color="#EFCA64"/>
<stop offset="0.8006" stop-color="#E5AB3B"/>
<stop offset="0.8043" stop-color="#E4A939"/>
<stop offset="0.8312" stop-color="#E9B64B"/>
<stop offset="0.9065" stop-color="#F4D87B"/>
<stop offset="0.9653" stop-color="#FAEC98"/>
<stop offset="1" stop-color="#FCF3A3"/>
</linearGradient>
<linearGradient id="paint7_linear_201_2285" x1="-32.7266" y1="167.563" x2="577.475" y2="167.563" gradientUnits="userSpaceOnUse">
<stop stop-color="#FCF3A3"/>
<stop offset="0.083521" stop-color="#F7E189"/>
<stop offset="0.2592" stop-color="#E7B245"/>
<stop offset="0.2896" stop-color="#E4A939"/>
<stop offset="0.3191" stop-color="#E7B345"/>
<stop offset="0.4346" stop-color="#F3D674"/>
<stop offset="0.5248" stop-color="#FAEB91"/>
<stop offset="0.578" stop-color="#FDF39C"/>
<stop offset="0.6184" stop-color="#FBEE96"/>
<stop offset="0.6722" stop-color="#F7E183"/>
<stop offset="0.7338" stop-color="#EFCA64"/>
<stop offset="0.8006" stop-color="#E5AB3B"/>
<stop offset="0.8043" stop-color="#E4A939"/>
<stop offset="0.8312" stop-color="#E9B64B"/>
<stop offset="0.9065" stop-color="#F4D87B"/>
<stop offset="0.9653" stop-color="#FAEC98"/>
<stop offset="1" stop-color="#FCF3A3"/>
</linearGradient>
<linearGradient id="paint8_linear_201_2285" x1="19.5854" y1="209.762" x2="554.786" y2="209.762" gradientUnits="userSpaceOnUse">
<stop stop-color="#FCF3A3"/>
<stop offset="0.083521" stop-color="#F7E189"/>
<stop offset="0.2592" stop-color="#E7B245"/>
<stop offset="0.2896" stop-color="#E4A939"/>
<stop offset="0.3191" stop-color="#E7B345"/>
<stop offset="0.4346" stop-color="#F3D674"/>
<stop offset="0.5248" stop-color="#FAEB91"/>
<stop offset="0.578" stop-color="#FDF39C"/>
<stop offset="0.6184" stop-color="#FBEE96"/>
<stop offset="0.6722" stop-color="#F7E183"/>
<stop offset="0.7338" stop-color="#EFCA64"/>
<stop offset="0.8006" stop-color="#E5AB3B"/>
<stop offset="0.8043" stop-color="#E4A939"/>
<stop offset="0.8312" stop-color="#E9B64B"/>
<stop offset="0.9065" stop-color="#F4D87B"/>
<stop offset="0.9653" stop-color="#FAEC98"/>
<stop offset="1" stop-color="#FCF3A3"/>
</linearGradient>
<linearGradient id="paint9_linear_201_2285" x1="19.586" y1="148.385" x2="554.786" y2="148.385" gradientUnits="userSpaceOnUse">
<stop stop-color="#FCF3A3"/>
<stop offset="0.083521" stop-color="#F7E189"/>
<stop offset="0.2592" stop-color="#E7B245"/>
<stop offset="0.2896" stop-color="#E4A939"/>
<stop offset="0.3191" stop-color="#E7B345"/>
<stop offset="0.4346" stop-color="#F3D674"/>
<stop offset="0.5248" stop-color="#FAEB91"/>
<stop offset="0.578" stop-color="#FDF39C"/>
<stop offset="0.6184" stop-color="#FBEE96"/>
<stop offset="0.6722" stop-color="#F7E183"/>
<stop offset="0.7338" stop-color="#EFCA64"/>
<stop offset="0.8006" stop-color="#E5AB3B"/>
<stop offset="0.8043" stop-color="#E4A939"/>
<stop offset="0.8312" stop-color="#E9B64B"/>
<stop offset="0.9065" stop-color="#F4D87B"/>
<stop offset="0.9653" stop-color="#FAEC98"/>
<stop offset="1" stop-color="#FCF3A3"/>
</linearGradient>
<clipPath id="clip0_201_2285">
<rect width="440" height="440" fill="white"/>
</clipPath>
</defs>
</svg>
