<svg width="72" height="30" viewBox="0 0 72 30" fill="none" xmlns="http://www.w3.org/2000/svg">
<rect width="72" height="30" rx="1" fill="#F8F8F8"/>
<g clip-path="url(#clip0_208_2452)">
<path d="M29.4475 11.4495H26.571C26.4757 11.4494 26.3836 11.4838 26.3112 11.5464C26.2388 11.609 26.1909 11.6957 26.176 11.7909L25.0126 19.2566C25.0073 19.2912 25.0094 19.3266 25.0189 19.3604C25.0284 19.3941 25.0449 19.4254 25.0675 19.452C25.09 19.4786 25.118 19.5 25.1495 19.5146C25.181 19.5292 25.2152 19.5368 25.2499 19.5367H26.6231C26.7184 19.5368 26.8106 19.5023 26.883 19.4397C26.9554 19.377 27.0033 19.2902 27.0181 19.1949L27.3318 17.1813C27.3466 17.086 27.3944 16.9993 27.4668 16.9366C27.5391 16.8739 27.6312 16.8395 27.7264 16.8394H28.637C30.5318 16.8394 31.6254 15.9114 31.911 14.0723C32.0397 13.2677 31.9164 12.6355 31.5442 12.1928C31.1354 11.7066 30.4102 11.4495 29.4475 11.4495ZM29.7793 14.1761C29.622 15.2208 28.8334 15.2208 28.0708 15.2208H27.6368L27.9413 13.2698C27.9502 13.2127 27.979 13.1607 28.0224 13.1232C28.0658 13.0857 28.121 13.065 28.1781 13.065H28.377C28.8965 13.065 29.3865 13.065 29.6397 13.3647C29.7907 13.5435 29.837 13.8092 29.7793 14.1761ZM38.0459 14.1425H36.6684C36.6113 14.1425 36.5561 14.1631 36.5127 14.2007C36.4693 14.2382 36.4405 14.2902 36.4316 14.3473L36.3706 14.7372L36.2743 14.5959C35.9761 14.1578 35.3111 14.0114 34.6474 14.0114C33.1252 14.0114 31.8252 15.1783 31.572 16.8151C31.4403 17.6317 31.6275 18.4124 32.0851 18.9569C32.5049 19.4575 33.1055 19.6661 33.8201 19.6661C35.0466 19.6661 35.7267 18.8679 35.7267 18.8679L35.6653 19.2553C35.6598 19.29 35.6618 19.3254 35.6712 19.3592C35.6805 19.3929 35.697 19.4242 35.7195 19.451C35.7419 19.4777 35.7699 19.4991 35.8013 19.5139C35.8328 19.5286 35.867 19.5362 35.9016 19.5363H37.1424C37.2377 19.5363 37.3299 19.5019 37.4023 19.4392C37.4747 19.3765 37.5226 19.2897 37.5374 19.1944L38.2818 14.4226C38.2873 14.3881 38.2853 14.3527 38.276 14.319C38.2666 14.2853 38.2502 14.2541 38.2278 14.2274C38.2053 14.2008 38.1774 14.1794 38.146 14.1648C38.1146 14.1501 38.0805 14.1425 38.0459 14.1425ZM36.1258 16.856C35.9929 17.6525 35.3683 18.1872 34.5717 18.1872C34.1717 18.1872 33.852 18.0574 33.6468 17.8113C33.4432 17.5669 33.3658 17.2191 33.4306 16.8317C33.5547 16.042 34.1898 15.4899 34.9742 15.4899C35.3654 15.4899 35.6834 15.6214 35.8928 15.8696C36.1027 16.1204 36.186 16.4703 36.1258 16.856ZM45.3821 14.1425H43.9978C43.9326 14.1426 43.8683 14.1588 43.8106 14.1898C43.7529 14.2207 43.7036 14.2654 43.6668 14.32L41.7577 17.1664L40.9485 14.4312C40.9236 14.3477 40.8729 14.2746 40.8038 14.2226C40.7347 14.1707 40.651 14.1426 40.5649 14.1425H39.2046C39.1665 14.1424 39.1288 14.1515 39.0948 14.1691C39.0608 14.1867 39.0315 14.2123 39.0092 14.2437C38.987 14.2751 38.9724 14.3114 38.9668 14.3497C38.9613 14.3879 38.9648 14.4269 38.9771 14.4635L40.5018 18.9922L39.0684 21.0403C39.0429 21.0766 39.0278 21.1194 39.0247 21.1638C39.0216 21.2082 39.0307 21.2526 39.0509 21.2922C39.0711 21.3318 39.1016 21.3649 39.1392 21.3881C39.1768 21.4113 39.22 21.4235 39.264 21.4235H40.6465C40.711 21.4236 40.7746 21.4078 40.8318 21.3776C40.8891 21.3473 40.9382 21.3035 40.975 21.2498L45.5789 14.5235C45.6038 14.4871 45.6185 14.4445 45.6212 14.4003C45.6239 14.3561 45.6147 14.312 45.5944 14.2727C45.5741 14.2335 45.5436 14.2006 45.5062 14.1776C45.4687 14.1547 45.4258 14.1425 45.3821 14.1425Z" fill="#253B80"/>
<path d="M49.9651 11.4495H47.0882C46.9931 11.4495 46.901 11.4839 46.8287 11.5465C46.7564 11.6091 46.7085 11.6957 46.6937 11.7909L45.5303 19.2566C45.5249 19.2912 45.5269 19.3265 45.5363 19.3602C45.5457 19.3939 45.5622 19.4252 45.5847 19.4518C45.6072 19.4784 45.6351 19.4998 45.6665 19.5145C45.6979 19.5291 45.7321 19.5367 45.7667 19.5367H47.243C47.3096 19.5366 47.374 19.5125 47.4246 19.4686C47.4751 19.4248 47.5086 19.3641 47.5189 19.2975L47.8491 17.1812C47.8638 17.086 47.9117 16.9993 47.984 16.9366C48.0563 16.8739 48.1484 16.8395 48.2436 16.8394H49.1538C51.049 16.8394 52.1422 15.9114 52.4282 14.0723C52.5573 13.2677 52.4332 12.6355 52.061 12.1928C51.6526 11.7066 50.9279 11.4495 49.9651 11.4495ZM50.297 14.1761C50.1401 15.2208 49.3515 15.2208 48.5885 15.2208H48.1549L48.4598 13.2698C48.4685 13.2127 48.4972 13.1607 48.5405 13.1231C48.5839 13.0856 48.6391 13.065 48.6962 13.065H48.8951C49.4141 13.065 49.9046 13.065 50.1578 13.3647C50.3088 13.5435 50.3546 13.8092 50.297 14.1761ZM58.5631 14.1425H57.1865C57.1294 14.1424 57.0741 14.1629 57.0308 14.2005C56.9874 14.2381 56.9588 14.2902 56.9501 14.3473L56.8891 14.7372L56.7924 14.5959C56.4942 14.1578 55.8296 14.0114 55.1659 14.0114C53.6437 14.0114 52.3441 15.1783 52.0909 16.8151C51.9596 17.6317 52.146 18.4124 52.6036 18.9569C53.0242 19.4575 53.624 19.6661 54.3386 19.6661C55.5651 19.6661 56.2452 18.8679 56.2452 18.8679L56.1838 19.2553C56.1783 19.29 56.1803 19.3255 56.1897 19.3594C56.1991 19.3932 56.2157 19.4246 56.2382 19.4513C56.2608 19.478 56.2888 19.4994 56.3204 19.5141C56.3519 19.5288 56.3863 19.5364 56.421 19.5363H57.6613C57.7566 19.5362 57.8486 19.5018 57.921 19.4391C57.9933 19.3764 58.0411 19.2897 58.0559 19.1944L58.8008 14.4226C58.806 14.388 58.8038 14.3526 58.7943 14.3188C58.7848 14.2851 58.7682 14.2539 58.7456 14.2272C58.723 14.2006 58.695 14.1793 58.6635 14.1647C58.632 14.15 58.5978 14.1425 58.5631 14.1425ZM56.6431 16.856C56.511 17.6525 55.8856 18.1872 55.0889 18.1872C54.6898 18.1872 54.3693 18.0574 54.164 17.8113C53.9604 17.5669 53.8839 17.2191 53.9478 16.8317C54.0727 16.042 54.707 15.4899 55.4914 15.4899C55.8826 15.4899 56.2006 15.6214 56.41 15.8696C56.6208 16.1204 56.704 16.4703 56.6431 16.856ZM60.1871 11.6542L59.0064 19.2566C59.001 19.2912 59.0031 19.3265 59.0125 19.3602C59.0219 19.3939 59.0384 19.4252 59.0608 19.4518C59.0833 19.4784 59.1112 19.4998 59.1426 19.5145C59.174 19.5291 59.2082 19.5367 59.2428 19.5367H60.4298C60.627 19.5367 60.7944 19.392 60.8247 19.1949L61.9889 11.7296C61.9943 11.695 61.9923 11.6596 61.9829 11.6259C61.9735 11.5922 61.957 11.5609 61.9345 11.5342C61.9121 11.5076 61.8842 11.4862 61.8528 11.4715C61.8214 11.4567 61.7872 11.4491 61.7526 11.449H60.4234C60.3664 11.4492 60.3113 11.47 60.2679 11.5076C60.2246 11.5452 60.196 11.5972 60.1871 11.6542Z" fill="#179BD7"/>
<path d="M13.0679 20.9876L13.2878 19.5733L12.7978 19.5618H10.458L12.0841 9.12636C12.0889 9.09448 12.1049 9.06541 12.1291 9.04447C12.1534 9.02353 12.1843 9.0121 12.2161 9.01227H16.1614C17.4712 9.01227 18.375 9.28813 18.8469 9.83262C19.0682 10.088 19.2091 10.355 19.2772 10.6487C19.3487 10.9569 19.35 11.3252 19.2802 11.7743L19.2751 11.8071V12.0949L19.4964 12.2217C19.6653 12.3083 19.8171 12.4255 19.9443 12.5674C20.1336 12.7858 20.256 13.0633 20.3077 13.3924C20.3611 13.7309 20.3435 14.1336 20.256 14.5895C20.155 15.114 19.9918 15.5708 19.7714 15.9446C19.577 16.2794 19.3155 16.5694 19.0038 16.796C18.7111 17.0063 18.3633 17.1659 17.97 17.2681C17.5889 17.3686 17.1544 17.4192 16.6779 17.4192H16.3709C16.1513 17.4192 15.9381 17.4993 15.7707 17.6427C15.6035 17.7877 15.4926 17.9881 15.4577 18.2081L15.4346 18.3354L15.046 20.8279L15.0283 20.9194C15.0237 20.9484 15.0157 20.9629 15.0039 20.9727C14.9925 20.9821 14.9783 20.9873 14.9635 20.9876H13.0679Z" fill="#253B80"/>
<path d="M19.7055 11.8403C19.6937 11.9165 19.6803 11.9944 19.6651 12.0744C19.1448 14.7781 17.3648 15.7121 15.0915 15.7121H13.934C13.6559 15.7121 13.4217 15.9165 13.3783 16.194L12.7857 19.9982L12.6179 21.0765C12.6112 21.1193 12.6138 21.163 12.6254 21.2047C12.637 21.2464 12.6574 21.285 12.6852 21.318C12.713 21.3509 12.7475 21.3773 12.7863 21.3955C12.8252 21.4136 12.8674 21.423 12.9102 21.4231H14.9632C15.2063 21.4231 15.4128 21.2443 15.4511 21.0016L15.4713 20.896L15.8578 18.4133L15.8826 18.277C15.9205 18.0335 16.1274 17.8547 16.3705 17.8547H16.6776C18.6666 17.8547 20.2237 17.0374 20.6788 14.6721C20.8689 13.684 20.7705 12.859 20.2674 12.2788C20.108 12.0993 19.9176 11.9507 19.7055 11.8403Z" fill="#179BD7"/>
<path d="M19.1608 11.6206C18.9947 11.572 18.8257 11.534 18.6548 11.5069C18.3172 11.4544 17.976 11.4292 17.6344 11.4316H14.5422C14.4245 11.4315 14.3106 11.474 14.2212 11.5515C14.1318 11.6289 14.0728 11.7362 14.0547 11.8539L13.3969 16.071L13.3779 16.194C13.3984 16.0598 13.4657 15.9374 13.5676 15.849C13.6695 15.7606 13.7993 15.7121 13.9335 15.7121H15.091C17.3644 15.7121 19.1444 14.7777 19.6647 12.0744C19.6803 11.9944 19.6933 11.9165 19.7051 11.8403C19.5678 11.7674 19.4247 11.7063 19.2773 11.6576C19.2387 11.6447 19.1998 11.6323 19.1608 11.6206Z" fill="#222D65"/>
<path d="M14.0554 11.8539C14.0733 11.7362 14.1323 11.6288 14.2218 11.5514C14.3112 11.474 14.4252 11.4316 14.5428 11.432H17.6351C18.0015 11.432 18.3434 11.4563 18.6555 11.5074C18.8667 11.541 19.075 11.5912 19.2784 11.6576C19.4319 11.7092 19.5745 11.77 19.7062 11.8403C19.861 10.8411 19.7049 10.1608 19.1712 9.54483C18.5827 8.86668 17.5207 8.57634 16.1617 8.57634H12.2165C11.9389 8.57634 11.7021 8.78068 11.6592 9.05867L10.0159 19.6014C10.0082 19.6504 10.0111 19.7004 10.0244 19.7481C10.0377 19.7958 10.061 19.84 10.0928 19.8778C10.1246 19.9155 10.164 19.9457 10.2085 19.9665C10.2529 19.9873 10.3013 19.9981 10.3503 19.9982H12.786L13.3975 16.071L14.0554 11.8539Z" fill="#253B80"/>
</g>
<defs>
<clipPath id="clip0_208_2452">
<rect width="52" height="14" fill="white" transform="translate(10 8)"/>
</clipPath>
</defs>
</svg>
