<svg width="54" height="30" viewBox="0 0 54 30" fill="none" xmlns="http://www.w3.org/2000/svg">
<rect width="54" height="30" rx="1" fill="#F8F8F8"/>
<path d="M12.3894 13.486C12.3894 13.1215 12.6916 12.9813 13.1923 12.9813C13.91 12.9813 14.8166 13.1963 15.5344 13.5795V11.3832C14.7506 11.0748 13.9761 10.9533 13.1923 10.9533C11.275 10.9533 10 11.944 10 13.5982C10 16.1776 13.5889 15.7664 13.5889 16.8786C13.5889 17.3084 13.2111 17.4487 12.6822 17.4487C11.8984 17.4487 10.8972 17.1309 10.1039 16.701V18.9253C10.9822 19.2991 11.87 19.458 12.6822 19.458C14.6466 19.458 15.9972 18.4954 15.9972 16.8225C15.9878 14.0374 12.3894 14.5327 12.3894 13.486ZM18.7739 9.08413L16.4694 9.57008L16.46 17.0561C16.46 18.4393 17.5084 19.458 18.9061 19.458C19.6806 19.458 20.2472 19.3178 20.5589 19.1496V17.2524C20.2567 17.3739 18.7644 17.8038 18.7644 16.4206V13.1028H20.5589V11.1122H18.7644L18.7739 9.08413ZM23.4961 11.8037L23.345 11.1122H21.305V19.2897H23.6661V13.7477C24.2233 13.0281 25.1678 13.1589 25.4606 13.2617V11.1122C25.1584 11 24.0534 10.7944 23.4961 11.8037ZM26.0366 11.1122H28.4072V19.2897H26.0366V11.1122ZM26.0366 10.4019L28.4072 9.8972V8L26.0366 8.49534V10.4019ZM33.3372 10.9533C32.4116 10.9533 31.8166 11.3832 31.4861 11.6823L31.3633 11.1028H29.2856V22L31.6466 21.5047L31.6561 18.8598C31.9961 19.1028 32.4966 19.4486 33.3278 19.4486C35.0184 19.4486 36.5578 18.1028 36.5578 15.1402C36.5484 12.4299 34.99 10.9533 33.3372 10.9533ZM32.7706 17.3925C32.2134 17.3925 31.8827 17.1963 31.6561 16.9533L31.6466 13.486C31.8922 13.215 32.2322 13.0281 32.7706 13.0281C33.63 13.0281 34.225 13.9813 34.225 15.2056C34.225 16.458 33.6394 17.3925 32.7706 17.3925ZM44 15.2337C44 12.8411 42.8289 10.9533 40.5906 10.9533C38.3427 10.9533 36.9827 12.8412 36.9827 15.215C36.9827 18.028 38.5884 19.4486 40.8927 19.4486C42.0166 19.4486 42.8666 19.1963 43.5089 18.8412V16.972C42.8667 17.2898 42.13 17.4861 41.195 17.4861C40.2789 17.4861 39.4666 17.1683 39.3628 16.0655H43.9811C43.9811 15.9439 44 15.458 44 15.2337ZM39.3344 14.3458C39.3344 13.2898 39.9861 12.8505 40.5811 12.8505C41.1572 12.8505 41.7711 13.2898 41.7711 14.3458H39.3344Z" fill="#6772E5"/>
</svg>
