<svg width="34" height="22" viewBox="0 0 34 22" fill="none" xmlns="http://www.w3.org/2000/svg">
<path d="M33.042 9.85505L33.0419 9.85489L31.6689 7.94866C31.6688 7.94856 31.6687 7.94845 31.6686 7.94835C31.3521 7.50382 30.9341 7.14116 30.4494 6.89044C29.9645 6.63966 29.4269 6.50809 28.881 6.50666H28.8807H23.1407V3.75333C23.1407 2.84275 22.779 1.96947 22.1351 1.3256C21.4913 0.681723 20.618 0.319998 19.7074 0.319998L3.7474 0.319998L3.74712 0.319999C2.83739 0.322535 1.96566 0.685045 1.32238 1.32832C0.67911 1.97159 0.316599 2.84333 0.314062 3.75305V3.75333V17.0067C0.314062 17.5636 0.535311 18.0978 0.929138 18.4916C1.32296 18.8854 1.85711 19.1067 2.41406 19.1067H3.95509C4.07469 19.8103 4.4345 20.4518 4.97462 20.921C5.53668 21.4094 6.25618 21.6782 7.00073 21.6782C7.74528 21.6782 8.46478 21.4094 9.02684 20.9211C9.56696 20.4518 9.92677 19.8103 10.0464 19.1067H23.9551C24.0747 19.8103 24.4345 20.4518 24.9746 20.921C25.5367 21.4094 26.2562 21.6782 27.0007 21.6782C27.7453 21.6782 28.4648 21.4094 29.0268 20.921C29.567 20.4518 29.9268 19.8103 30.0464 19.1067H31.5874C32.1444 19.1067 32.6785 18.8854 33.0723 18.4916C33.4661 18.0978 33.6874 17.5636 33.6874 17.0067L33.6874 11.8467L33.6874 11.8462C33.684 11.1316 33.4585 10.4357 33.042 9.85505ZM7.00073 20.1467C6.69087 20.1467 6.38797 20.0548 6.13034 19.8826C5.8727 19.7105 5.6719 19.4658 5.55332 19.1795C5.43474 18.8933 5.40372 18.5783 5.46417 18.2744C5.52462 17.9705 5.67383 17.6913 5.89293 17.4722C6.11203 17.2531 6.39118 17.1039 6.69509 17.0434C6.99899 16.983 7.314 17.014 7.60027 17.1326C7.88654 17.2512 8.13122 17.452 8.30337 17.7096C8.47551 17.9672 8.5674 18.2701 8.5674 18.58C8.5674 18.9955 8.40234 19.394 8.10853 19.6878C7.81472 19.9816 7.41624 20.1467 7.00073 20.1467ZM21.6074 17.5733H9.93953C9.73256 16.9744 9.34729 16.4524 8.83464 16.078C8.30224 15.6891 7.66002 15.4796 7.00073 15.4796C6.34144 15.4796 5.69922 15.6891 5.16682 16.078C4.65417 16.4524 4.2689 16.9744 4.06193 17.5733H2.41406C2.26377 17.5733 2.11964 17.5136 2.01337 17.4074C1.9071 17.3011 1.8474 17.157 1.8474 17.0067V3.75333C1.8474 3.24942 2.04757 2.76615 2.40389 2.40983C2.76021 2.05351 3.24348 1.85333 3.7474 1.85333H19.7074C20.2113 1.85333 20.6946 2.05351 21.0509 2.40983C21.4072 2.76615 21.6074 3.24942 21.6074 3.75333V17.5733ZM27.0007 20.1467C26.6909 20.1467 26.388 20.0548 26.1303 19.8826C25.8727 19.7105 25.6719 19.4658 25.5533 19.1795C25.4347 18.8933 25.4037 18.5783 25.4642 18.2744C25.5246 17.9705 25.6738 17.6913 25.8929 17.4722C26.112 17.2531 26.3912 17.1039 26.6951 17.0434C26.999 16.983 27.314 17.014 27.6003 17.1326C27.8865 17.2512 28.1312 17.452 28.3034 17.7096C28.4755 17.9672 28.5674 18.2701 28.5674 18.58C28.5674 18.9955 28.4023 19.394 28.1085 19.6878C27.8147 19.9816 27.4162 20.1467 27.0007 20.1467ZM32.1541 17.0067C32.1541 17.157 32.0944 17.3011 31.9881 17.4074C31.8818 17.5136 31.7377 17.5733 31.5874 17.5733H29.9395C29.7326 16.9744 29.3473 16.4524 28.8346 16.078C28.3022 15.6891 27.66 15.4796 27.0007 15.4796C26.3414 15.4796 25.6992 15.6891 25.1668 16.078C24.6542 16.4524 24.2689 16.9744 24.0619 17.5733H23.1407V8.04H28.8804C29.1827 8.04208 29.4802 8.11545 29.7487 8.25413C30.0174 8.39287 30.2495 8.59307 30.4263 8.83844L30.5074 8.78L30.4263 8.83844L31.7991 10.7444C31.7991 10.7445 31.7992 10.7445 31.7992 10.7446C32.0272 11.0672 32.151 11.4519 32.1541 11.8469V17.0067Z" fill="#36B37E" stroke="#36B37E" stroke-width="0.2"/>
</svg>
